<svg width="20" height="20" viewBox="0 0 20 20" fill="none" xmlns="http://www.w3.org/2000/svg">
<g id="Cart - Bold 24px">
<g id="Buy">
<path id="Buy_2" fill-rule="evenodd" clip-rule="evenodd" d="M11.7681 9.36089H14.0746C14.4243 9.36089 14.6991 9.07175 14.6991 8.72308C14.6991 8.3659 14.4243 8.08526 14.0746 8.08526H11.7681C11.4183 8.08526 11.1436 8.3659 11.1436 8.72308C11.1436 9.07175 11.4183 9.36089 11.7681 9.36089ZM16.8141 4.93954C17.3221 4.93954 17.6552 5.11813 17.9882 5.50932C18.3213 5.90052 18.3796 6.4618 18.3046 6.9712L17.5136 12.55C17.3637 13.6224 16.4644 14.4124 15.4069 14.4124H6.32232C5.21485 14.4124 4.29889 13.5458 4.2073 12.4233L3.44123 3.1528L2.18387 2.93169C1.8508 2.87216 1.61765 2.54049 1.67594 2.20032C1.73422 1.8525 2.05897 1.62203 2.40037 1.67391L4.38632 1.97921C4.66944 2.03109 4.87761 2.26835 4.90259 2.5575L5.0608 4.46245C5.08578 4.73544 5.30228 4.93954 5.56874 4.93954H16.8141ZM6.18891 15.7565C5.48946 15.7565 4.92323 16.3348 4.92323 17.0491C4.92323 17.755 5.48946 18.3333 6.18891 18.3333C6.88004 18.3333 7.44626 17.755 7.44626 17.0491C7.44626 16.3348 6.88004 15.7565 6.18891 15.7565ZM15.5566 15.7565C14.8572 15.7565 14.2909 16.3348 14.2909 17.0491C14.2909 17.755 14.8572 18.3333 15.5566 18.3333C16.2478 18.3333 16.814 17.755 16.814 17.0491C16.814 16.3348 16.2478 15.7565 15.5566 15.7565Z" fill="white"/>
</g>
</g>
</svg>
