<svg width="20" height="20" viewBox="0 0 20 20" fill="none" xmlns="http://www.w3.org/2000/svg">
<g id="Logout - Bold 24px">
<g id="Logout">
<path id="Logout_2" fill-rule="evenodd" clip-rule="evenodd" d="M7.99942 9.39033C7.64853 9.39033 7.37107 9.6595 7.37107 9.99992C7.37107 10.3324 7.64853 10.6095 7.99942 10.6095H12.8956V14.3937C12.8956 16.3333 11.2717 17.9166 9.26427 17.9166H5.29019C3.2909 17.9166 1.66699 16.3412 1.66699 14.4016V5.60617C1.66699 3.65867 3.29906 2.08325 5.29835 2.08325H9.2806C11.2717 2.08325 12.8956 3.65867 12.8956 5.59825V9.39033H7.99942ZM15.8072 7.26092L18.1492 9.56467C18.2695 9.68342 18.3337 9.83383 18.3337 10.0001C18.3337 10.1584 18.2695 10.3168 18.1492 10.4276L15.8072 12.7313C15.6869 12.8501 15.5265 12.9134 15.3741 12.9134C15.2137 12.9134 15.0533 12.8501 14.933 12.7313C14.6924 12.4938 14.6924 12.1059 14.933 11.8684L16.2163 10.6097H12.8958V9.3905H16.2163L14.933 8.13175C14.6924 7.89425 14.6924 7.50633 14.933 7.26883C15.1736 7.02342 15.5666 7.02342 15.8072 7.26092Z" fill="white"/>
</g>
</g>
</svg>
